<svg xmlns="http://www.w3.org/2000/svg" width="720" height="966" viewBox="0 0 720 966" font-family="-apple-system, BlinkMacSystemFont, 'Segoe UI', system-ui, sans-serif">
  <defs>
    <filter id="cardShadow" x="-20%" y="-20%" width="140%" height="160%">
      <feDropShadow dx="0" dy="2" stdDeviation="6" flood-color="#000000" flood-opacity="0.40"/>
    </filter>
    <filter id="panelShadow" x="-20%" y="-20%" width="140%" height="140%">
      <feDropShadow dx="0" dy="6" stdDeviation="20" flood-color="#0B1220" flood-opacity="0.06"/>
    </filter>
  </defs>
  
  <rect x="12" y="12" width="696" height="940" rx="22" fill="#10151C" stroke="#232B35" stroke-width="1"/>
  <g>
    <rect x="80" y="220.0" width="560" height="626.0" rx="18" fill="#151C27" stroke="#3D4A5C" stroke-width="1"/>
    <rect x="96" y="231.0" width="144.4" height="22" rx="8" fill="#242F40"/>
    <text x="168.2" y="246.0" font-family="ui-monospace, 'SF Mono', 'JetBrains Mono', Menlo, Consolas, monospace" font-size="10" font-weight="600" letter-spacing="1.5" fill="#9FABBC" text-anchor="middle">LOCAL K3D CLUSTER</text>
  </g>
  <g>
    <line x1="40" y1="42" x2="200" y2="42" stroke="#232B35" stroke-width="1"/>
    <line x1="520" y1="42" x2="680" y2="42" stroke="#232B35" stroke-width="1"/>
    <text x="360" y="46" font-family="ui-monospace, 'SF Mono', 'JetBrains Mono', Menlo, Consolas, monospace" font-size="11" font-weight="600" letter-spacing="2.4" fill="#7E8896" text-anchor="middle">EVERYTHING RUNS ON YOUR MACHINE</text>
  </g>
  <line x1="360" y1="88.0" x2="360" y2="91.0" stroke="#313A46" stroke-width="2"/><path d="M 355 88.0 L 360 95.0 L 365 88.0" fill="none" stroke="#4C5663" stroke-width="2" stroke-linecap="round" stroke-linejoin="round"/><g>
    <circle cx="360" cy="73.0" r="15" fill="#171D26" stroke="#2DD4A6" stroke-width="2"/>
    <text x="360" y="77.5" font-family="ui-monospace, 'SF Mono', 'JetBrains Mono', Menlo, Consolas, monospace" font-size="12.5" font-weight="700" fill="#74ECC9" text-anchor="middle">01</text>
  </g><line x1="360" y1="258.0" x2="360" y2="261.0" stroke="#313A46" stroke-width="2"/><path d="M 355 258.0 L 360 265.0 L 365 258.0" fill="none" stroke="#4C5663" stroke-width="2" stroke-linecap="round" stroke-linejoin="round"/><line x1="360" y1="188" x2="360" y2="228.0" stroke="#313A46" stroke-width="2"/><g>
          <rect x="277.0" y="196.0" width="166.0" height="24" rx="12" fill="#171D26" stroke="#2A323D"/>
          <text x="360" y="212.0" font-family="ui-monospace, 'SF Mono', 'JetBrains Mono', Menlo, Consolas, monospace" font-size="12" fill="#AAC1FF" text-anchor="middle">git-auto-sync pushes</text>
        </g><g>
    <circle cx="360" cy="243.0" r="15" fill="#171D26" stroke="#6A92FF" stroke-width="2"/>
    <text x="360" y="247.5" font-family="ui-monospace, 'SF Mono', 'JetBrains Mono', Menlo, Consolas, monospace" font-size="12.5" font-weight="700" fill="#AAC1FF" text-anchor="middle">02</text>
  </g><line x1="360" y1="402.0" x2="360" y2="405.0" stroke="#313A46" stroke-width="2"/><path d="M 355 402.0 L 360 409.0 L 365 402.0" fill="none" stroke="#4C5663" stroke-width="2" stroke-linecap="round" stroke-linejoin="round"/><line x1="360" y1="358" x2="360" y2="372.0" stroke="#313A46" stroke-width="2"/><g>
    <circle cx="360" cy="387.0" r="15" fill="#171D26" stroke="#6A92FF" stroke-width="2"/>
    <text x="360" y="391.5" font-family="ui-monospace, 'SF Mono', 'JetBrains Mono', Menlo, Consolas, monospace" font-size="12.5" font-weight="700" fill="#AAC1FF" text-anchor="middle">03</text>
  </g><line x1="360" y1="566.0" x2="360" y2="569.0" stroke="#313A46" stroke-width="2"/><path d="M 355 566.0 L 360 573.0 L 365 566.0" fill="none" stroke="#4C5663" stroke-width="2" stroke-linecap="round" stroke-linejoin="round"/><line x1="360" y1="522" x2="360" y2="536.0" stroke="#313A46" stroke-width="2"/><g>
    <circle cx="360" cy="551.0" r="15" fill="#171D26" stroke="#A78BFA" stroke-width="2"/>
    <text x="360" y="555.5" font-family="ui-monospace, 'SF Mono', 'JetBrains Mono', Menlo, Consolas, monospace" font-size="12.5" font-weight="700" fill="#CBB8FF" text-anchor="middle">04</text>
  </g><line x1="360" y1="730.0" x2="360" y2="733.0" stroke="#313A46" stroke-width="2"/><path d="M 355 730.0 L 360 737.0 L 365 730.0" fill="none" stroke="#4C5663" stroke-width="2" stroke-linecap="round" stroke-linejoin="round"/><line x1="360" y1="686" x2="360" y2="700.0" stroke="#313A46" stroke-width="2"/><g>
    <circle cx="360" cy="715.0" r="15" fill="#171D26" stroke="#2DD4A6" stroke-width="2"/>
    <text x="360" y="719.5" font-family="ui-monospace, 'SF Mono', 'JetBrains Mono', Menlo, Consolas, monospace" font-size="12.5" font-weight="700" fill="#74ECC9" text-anchor="middle">05</text>
  </g>
  <g>
    <rect x="92" y="96" width="536" height="92" rx="16" fill="#171D26" stroke="#2A323D" filter="url(#cardShadow)"/>
    <rect x="92.5" y="112" width="4" height="60" rx="2" fill="#2DD4A6"/>
    <g>
    <rect x="564.2" y="114.0" width="41.8" height="20" rx="10" fill="#0E2A24"/>
    <text x="585.1" y="128.0" font-family="ui-monospace, 'SF Mono', 'JetBrains Mono', Menlo, Consolas, monospace" font-size="10.5" font-weight="600" letter-spacing="0.8" fill="#74ECC9" text-anchor="middle">YOU</text>
  </g>
    <text x="126" y="137.0" font-family="-apple-system, BlinkMacSystemFont, 'Segoe UI', system-ui, sans-serif" font-size="17.5" font-weight="650" fill="#E8EEF5" letter-spacing="-0.1">you save + git commit</text>
    <text x="126" y="161.0" font-family="-apple-system, BlinkMacSystemFont, 'Segoe UI', system-ui, sans-serif" font-size="13.5" fill="#98A2AF">in your app’s worktree</text>
  </g>
  <g>
    <rect x="92" y="266" width="536" height="92" rx="16" fill="#171D26" stroke="#2A323D" filter="url(#cardShadow)"/>
    <rect x="92.5" y="282" width="4" height="60" rx="2" fill="#6A92FF"/>
    <g>
    <rect x="531.2" y="284.0" width="74.8" height="20" rx="10" fill="#17223A"/>
    <text x="568.6" y="298.0" font-family="ui-monospace, 'SF Mono', 'JetBrains Mono', Menlo, Consolas, monospace" font-size="10.5" font-weight="600" letter-spacing="0.8" fill="#AAC1FF" text-anchor="middle">FLYWHEEL</text>
  </g>
    <text x="126" y="307.0" font-family="ui-monospace, 'SF Mono', 'JetBrains Mono', Menlo, Consolas, monospace" font-size="16.5" font-weight="650" fill="#E8EEF5" letter-spacing="-0.2">git-server</text>
    <text x="126" y="331.0" font-family="-apple-system, BlinkMacSystemFont, 'Segoe UI', system-ui, sans-serif" font-size="13.5" fill="#98A2AF">a bare in-cluster mirror of your worktree</text>
  </g>
  <g>
    <rect x="92" y="410" width="536" height="112" rx="16" fill="#171D26" stroke="#2A323D" filter="url(#cardShadow)"/>
    <rect x="92.5" y="426" width="4" height="80" rx="2" fill="#6A92FF"/>
    <g>
    <rect x="531.2" y="428.0" width="74.8" height="20" rx="10" fill="#17223A"/>
    <text x="568.6" y="442.0" font-family="ui-monospace, 'SF Mono', 'JetBrains Mono', Menlo, Consolas, monospace" font-size="10.5" font-weight="600" letter-spacing="0.8" fill="#AAC1FF" text-anchor="middle">FLYWHEEL</text>
  </g>
    <text x="126" y="452.0" font-family="ui-monospace, 'SF Mono', 'JetBrains Mono', Menlo, Consolas, monospace" font-size="16.5" font-weight="650" fill="#E8EEF5" letter-spacing="-0.2">image-builder-controller</text>
    <text x="126" y="476.0" font-family="-apple-system, BlinkMacSystemFont, 'Segoe UI', system-ui, sans-serif" font-size="13.5" fill="#98A2AF">runs a build-&lt;app&gt; Job per commit (warm BuildKit)</text>
    <text x="126" y="495.0" font-family="-apple-system, BlinkMacSystemFont, 'Segoe UI', system-ui, sans-serif" font-size="13.5" fill="#98A2AF">and pushes the image to the local registry</text>
  </g>
  <g>
    <rect x="92" y="574" width="536" height="112" rx="16" fill="#171D26" stroke="#2A323D" filter="url(#cardShadow)"/>
    <rect x="92.5" y="590" width="4" height="80" rx="2" fill="#A78BFA"/>
    <g>
    <rect x="557.6" y="592.0" width="48.4" height="20" rx="10" fill="#211A3A"/>
    <text x="581.8" y="606.0" font-family="ui-monospace, 'SF Mono', 'JetBrains Mono', Menlo, Consolas, monospace" font-size="10.5" font-weight="600" letter-spacing="0.8" fill="#CBB8FF" text-anchor="middle">FLUX</text>
  </g>
    <text x="126" y="616.0" font-family="ui-monospace, 'SF Mono', 'JetBrains Mono', Menlo, Consolas, monospace" font-size="16.5" font-weight="650" fill="#E8EEF5" letter-spacing="-0.2">image-automation-controller</text>
    <text x="126" y="640.0" font-family="-apple-system, BlinkMacSystemFont, 'Segoe UI', system-ui, sans-serif" font-size="13.5" fill="#98A2AF">commits the image bump to your gitops repo;</text>
    <text x="126" y="659.0" font-family="-apple-system, BlinkMacSystemFont, 'Segoe UI', system-ui, sans-serif" font-size="13.5" fill="#98A2AF">Flux rolls out the Deployment from git</text>
  </g>
  <g>
    <rect x="92" y="738" width="536" height="92" rx="16" fill="#171D26" stroke="#2A323D" filter="url(#cardShadow)"/>
    <rect x="92.5" y="754" width="4" height="60" rx="2" fill="#2DD4A6"/>
    <g>
    <rect x="564.2" y="756.0" width="41.8" height="20" rx="10" fill="#0E2A24"/>
    <text x="585.1" y="770.0" font-family="ui-monospace, 'SF Mono', 'JetBrains Mono', Menlo, Consolas, monospace" font-size="10.5" font-weight="600" letter-spacing="0.8" fill="#74ECC9" text-anchor="middle">YOU</text>
  </g>
    <text x="126" y="779.0" font-family="-apple-system, BlinkMacSystemFont, 'Segoe UI', system-ui, sans-serif" font-size="17.5" font-weight="650" fill="#E8EEF5" letter-spacing="-0.1">your pod is running the new code</text>
    <text x="126" y="803.0" font-family="-apple-system, BlinkMacSystemFont, 'Segoe UI', system-ui, sans-serif" font-size="13.5" fill="#98A2AF">typically a few seconds · ~30s worst case</text>
  </g>
  <g>
    <path d="M 360 830 V 852.0 Q 360 870 342 870 H 70 Q 52 870 52 852.0 V 160.0 Q 52 142.0 70 142.0 H 84" fill="none" stroke="#2DD4A6" stroke-width="2" stroke-dasharray="6 7" stroke-linecap="round"/>
    <path d="M 83 137.0 L 91 142.0 L 83 147.0" fill="none" stroke="#2DD4A6" stroke-width="2" stroke-linecap="round" stroke-linejoin="round"/>
    <text x="206.0" y="892.0" font-family="ui-monospace, 'SF Mono', 'JetBrains Mono', Menlo, Consolas, monospace" font-size="11.5" font-weight="600" fill="#74ECC9" text-anchor="middle">you observe the result → make the next change</text>
  </g>
  <line x1="40" y1="904" x2="680" y2="904" stroke="#232B35" stroke-width="1"/><circle cx="260.5" cy="922.0" r="4.5" fill="#2DD4A6"/><text x="273.0" y="926.0" font-family="ui-monospace, 'SF Mono', 'JetBrains Mono', Menlo, Consolas, monospace" font-size="12.5" fill="#98A2AF">you</text><circle cx="324.5" cy="922.0" r="4.5" fill="#6A92FF"/><text x="337.0" y="926.0" font-family="ui-monospace, 'SF Mono', 'JetBrains Mono', Menlo, Consolas, monospace" font-size="12.5" fill="#98A2AF">flywheel</text><circle cx="423.5" cy="922.0" r="4.5" fill="#A78BFA"/><text x="436.0" y="926.0" font-family="ui-monospace, 'SF Mono', 'JetBrains Mono', Menlo, Consolas, monospace" font-size="12.5" fill="#98A2AF">flux</text>
</svg>